<?xml version="1.0" standalone="no"?>
<!DOCTYPE svg PUBLIC "-//W3C//DTD SVG 20010904//EN"
 "http://www.w3.org/TR/2001/REC-SVG-20010904/DTD/svg10.dtd">
<svg version="1.0" xmlns="http://www.w3.org/2000/svg"
 width="128.000000pt" height="128.000000pt" viewBox="0 0 128.000000 128.000000"
 preserveAspectRatio="xMidYMid meet">
<metadata>
Created by potrace 1.11, written by Peter Selinger 2001-2013
</metadata>
<g transform="translate(0.000000,128.000000) scale(0.100000,-0.100000)"
fill="#000000" stroke="none">
<path d="M359 1233 c2 -27 8 -51 14 -55 18 -11 37 3 37 28 l0 24 332 -2 333
-3 0 -507 c0 -335 -3 -508 -10 -509 -5 -1 -15 -1 -22 0 -7 1 -15 -10 -19 -24
-4 -18 -13 -25 -29 -25 l-24 0 0 443 c0 243 0 460 -1 483 l0 40 -407 0 -408
-1 -1 -563 0 -562 408 0 408 0 1 43 c1 23 0 57 -1 75 -2 32 -1 32 47 33 26 1
62 1 79 1 l30 0 0 564 0 564 -385 0 -386 0 4 -47z m559 -671 l2 -512 -357 2
-358 3 -1 500 c0 275 1 505 3 510 2 7 127 10 356 10 l352 0 3 -513z"/>
<path d="M314 962 c-7 -7 -11 -19 -8 -27 5 -13 46 -15 260 -15 l254 0 0 25 c0
14 -6 25 -12 25 -7 1 -118 2 -247 3 -179 2 -238 -1 -247 -11z"/>
<path d="M308 808 c-14 -36 -1 -38 258 -38 l254 0 0 25 0 25 -254 0 c-194 0
-255 -3 -258 -12z"/>
<path d="M310 640 l0 -25 253 0 252 0 3 25 3 25 -256 0 -255 0 0 -25z"/>
<path d="M308 504 c-3 -3 -4 -14 -1 -25 5 -18 16 -19 259 -19 l254 0 0 25 0
25 -253 0 c-140 0 -256 -3 -259 -6z"/>
<path d="M308 354 c-3 -3 -4 -14 -1 -25 4 -14 14 -19 42 -19 69 -1 386 -1 429
-1 38 1 42 3 42 26 l0 25 -253 0 c-140 0 -256 -3 -259 -6z"/>
<path d="M314 192 c-7 -7 -11 -18 -8 -26 4 -10 58 -12 257 -12 l252 1 3 25 3
25 -247 0 c-189 0 -250 -3 -260 -13z"/>
</g>
</svg>
